<?xml version="1.0" encoding="utf-8"?>
<!-- Generator: Adobe Illustrator 15.0.0, SVG Export Plug-In . SVG Version: 6.00 Build 0)  -->
<!DOCTYPE svg PUBLIC "-//W3C//DTD SVG 1.1//EN" "http://www.w3.org/Graphics/SVG/1.1/DTD/svg11.dtd">
<svg version="1.1" id="Calque_1" xmlns="http://www.w3.org/2000/svg" xmlns:xlink="http://www.w3.org/1999/xlink" x="0px" y="0px"
	 width="596.085px" height="361.14px" viewBox="0 0 596.085 361.14" enable-background="new 0 0 596.085 361.14"
	 xml:space="preserve">
<g>
	<path fill-rule="evenodd" clip-rule="evenodd" fill="#FF0000" d="M96.988,54.993c-10.62,10.044-25.583,15.745-32.996,28.996
		c-21.272,20.173-36.523,50.188-35.996,86.989c0.884,61.647,43.941,104.126,112.986,91.988c2.742-21.715-0.28-50.641,1-70.991
		c1.526-0.016,2.192-7.409-1-5.999c2.293-1.039-0.474-7.14,2-7.999c7.403-0.246,5.824,3.174,7,7.999
		c20.844,0.201,38.597,14.913,36.995,30.996c-7.761-0.859-9.153-15.967-16.998-19.997c-7.062-1.271-11.164-5.5-19.997-5
		c-1.551,17.86-0.856,45.505-1,67.992c8.052-2.477,15.381-6.412,21.997-10.999c6.55-4.541,11.734-12.096,18.998-12.998
		c2.714,6.839-6.011,13.01-10.999,17.997c-8.84,8.84-18.7,17.755-29.996,21.998C77.251,302.909,5.752,263.237,0,198.976
		c0-7.999,0-15.998,0-23.997C7.315,109.97,42.725,73.055,96.988,54.993z"/>
	<path fill-rule="evenodd" clip-rule="evenodd" fill="#FF0000" d="M366.955,55.993c-38.924,12.93-84.596,11.3-107.987,38.995
		c-20.394,24.146-1.308,93.295-7.999,135.982c5.953,8.95,15.103,5.572,22.997,7c-9.75,6.056-16.924,21.524-28.997,20.997
		c-7.176-0.313-11.274-11.652-18.998-12.999c-9.501-1.655-12.06,7.355-19.998,1c6.859-4.473,14.412-8.251,21.998-11.998
		c0.185-18.773-0.828-38.779,0-56.993c0.822-18.111,3.181-42.439,0-53.993c-2.242-8.142-13.017-11.435-16.998-17.998
		c2.474-13.781,20.969-27.631,29.996-11.998C272.748,71.106,315.758,59.456,366.955,55.993z"/>
	<path fill-rule="evenodd" clip-rule="evenodd" d="M156.98,93.988c-5.974-4.025-8.685-11.313-13.999-15.998
		C150.586,65.279,165.534,87.602,156.98,93.988z"/>
	<path fill-rule="evenodd" clip-rule="evenodd" fill="#FF0000" d="M552.932,103.987c5.379,0.38,4.832-5.167,9.998-5
		c4.914,4.938-3.92,9.681-8.998,13.999c-4.367,3.713-10.174,10.998-14.998,10.998c-6.58,0-9.266-7.328-14.998-10.998
		c-4.975,1.432-8.66,8.215-12.998,1.999C523.02,106.392,539.607,82.257,552.932,103.987z"/>
	<path fill-rule="evenodd" clip-rule="evenodd" d="M89.989,176.978c6.265,5.067,12.68,9.983,24.997,8.999c8.666,0,17.331,0,25.997,0
		c3.192-1.41,2.526,5.983,1,5.999c-9.838-0.506-16.892,1.773-26.997,1c-11.936,2.488-18.612-5.229-24.997-4.999
		c-12.588-10.914-25.548-31.219-26.997-53.993c-0.578-9.088-0.947-19.498,5-25.997c6.259,2.248,1.442,7.551,1,12.998
		C67.173,143.377,76.805,170.482,89.989,176.978z"/>
	<path fill-rule="evenodd" clip-rule="evenodd" fill="#FF0000" d="M114.986,152.98c-8.575-7.757-12.208-20.455-16.998-31.996
		c1.904-1.873,2.512-0.109,5,0c2.208-0.124,0.424-4.241,1-5.999c2.152,1.805,3.537,2.836,3-1.999c3.386,1.541,4.573,0.936,6.999-2
		C116.315,122.988,114.322,139.313,114.986,152.98z"/>
	<path fill-rule="evenodd" clip-rule="evenodd" fill="#FF0000" d="M92.988,129.983c4.458,13.873,10.885,25.777,21.998,32.996
		c0,7.666,0,15.332,0,22.997c-12.317,0.984-18.732-3.932-24.997-8.999c-2.796-14.648,1.358-30.5,0-46.994
		c-0.054-1.87,0.77-2.116,2-1C92.045,129.594,92.138,130.168,92.988,129.983z"/>
	<path fill-rule="evenodd" clip-rule="evenodd" fill="#FF0000" d="M567.93,154.98c-0.045,1.71,0.742,2.59,2,3
		c-5.648,6.351-12.482,11.516-19.998,15.998c3.008,22.322-7.957,58.617,9.998,65.991c5.406,0.71,8.115-6.51,12-3.999
		c2.891,4.822-5.748,9.035-11,12.998c-4.061,3.065-11.379,10.319-15.998,10.999c-9.943,1.463-20.973-5.76-28.996-9.999
		c0.785-7.547,7.902-8.763,10.998-13.998c0.305-20-0.428-44.19,0-60.992c-1.826-3.507-6.479-4.186-7.998-7.999
		c-4.592,1.383-8.758,6.968-12.998,2.999c6.307-8.774,18.145-15.287,27.996-21.997c3.904-2.658,16.109,10.829,20.998,10.999
		C560.006,159.156,563.656,153.773,567.93,154.98z"/>
	<path fill-rule="evenodd" clip-rule="evenodd" fill="#FF0000" d="M329.959,230.971c3.52,3.48,8.215,5.784,12.998,7.999
		c10.521-4.145,17.133-12.197,26.998-16.997c-1.273-19.727,5.016-47.011-10-52.994c-4.07-0.593-7.215,6.469-8.998,2
		c-1.971-5.952,6.342-8.317,10.998-11.998c3.846-3.04,8.422-9.947,13.998-9.999c7.705-0.071,12.326,13.742,21.998,13.998
		c6.268,0.166,7.863-5.269,13.998-5.999c6.158,7.521-11.672,12.45-16.998,17.998c2.016,22.648-6.428,55.755,9.998,63.991
		c5.605-0.478,7.551-4.854,11,0c-8.189,5.417-17.951,22.021-29.996,19.998c-9.375-1.575-15.957-14.099-15.998-27.997
		c-6.697,2.685-13.215,8.313-20.998,13.999c-6.064,4.43-16.027,14.119-22.998,13.998c-8.416-0.147-14.617-12.71-23.996-12.999
		c-7.959-0.244-9.703,7.072-16.999,5c1.396-7.699,14.928-11.664,20.999-17.998c-2.914-22.083,7.516-57.51-9-65.991
		c-3.951,0.234-8.709,7.412-10.999,2.999c-2.973-7.558,18.602-13.604,22.997-20.997C340.822,151.45,326.953,199.648,329.959,230.971
		z"/>
	<path fill-rule="evenodd" clip-rule="evenodd" fill="#FF0000" d="M426.947,318.96c-5.238,0.25-5.65,7.847-5,10.999
		c-2.541,10.824,0.713,23.744,1,30.996c-5.871,1.315-7.213-4.722-7.998-7.999c-3.391-14.125,2.953-38.313,7.998-47.994
		c7.859-15.081,22.439-25.418,24.998-46.994c2.869-24.217-2.086-49.802,0-81.99c-1.15-3.516-5.672-3.661-7-6.999
		c-6.016-0.039-8.846,6.882-13.998,2c1.416-4.188,7.561-8.165,12.998-11.998c4.203-2.963,12.441-10.001,16.998-9.999
		c6.639,0.003,11.834,10.423,18.998,10.999c7.635,0.613,9.191-7.012,14.998-2c-0.072,8.04-12.838,11.742-18.998,16.998
		c-3.039,35.294,5.443,65.005-3,88.988C459.973,289.446,435.615,294.419,426.947,318.96z"/>
	<path fill-rule="evenodd" clip-rule="evenodd" fill="#FF0000" d="M114.986,192.976c1.186,22.876-13.884,34.742-30.997,35.996
		c4.918-10.747,7.006-24.323,6-40.995C96.374,187.747,103.05,195.464,114.986,192.976z"/>
	<path fill-rule="evenodd" clip-rule="evenodd" d="M356.955,318.96c5.773,5.821-1.471,20.887-4.998,26.997
		c-5.102-0.565-4.727-6.606-5-11.999c4.475,0.804,3.008,6.008,4,7.999c2.514-4.241,6.863-15.88,3-19.997
		C353.65,319.654,356.846,320.849,356.955,318.96z"/>
	<path fill-rule="evenodd" clip-rule="evenodd" d="M426.947,318.96c1.934,2.398,5.611,3.054,6,6.999
		c3.539-0.792,1.547-7.118,6.998-5.999c-1.803,5.195-4.549,9.448-4,16.998c3.16,0.159,6.035,0.035,7-2
		c1.195,4.884-8.66,7.322-12.998,9.999c2.766-8.24-5.283-9.477-8-14.998C421.297,326.807,421.709,319.21,426.947,318.96z
		 M425.947,320.96c-3.785,4.651,0.6,12.551,6,13.998c-1.373-2.279,2.576-3.759,0-3.999
		C432.068,330.911,430.959,321.672,425.947,320.96z"/>
	<path fill-rule="evenodd" clip-rule="evenodd" d="M459.943,318.96c1,0,2,0,3,0c0.107,7.542-4.164,14.621-3,25.997
		C454.217,339.623,458.088,325.185,459.943,318.96z"/>
	<path fill-rule="evenodd" clip-rule="evenodd" d="M522.936,321.96c-0.57,2.762-1.059,5.606-5,4.999
		C518.377,324.067,520.043,322.401,522.936,321.96z"/>
	<path fill-rule="evenodd" clip-rule="evenodd" d="M565.93,321.96c2.668,1.463-0.418,5.486-3,4.999
		C561.871,323.234,565.035,323.731,565.93,321.96z"/>
	<path fill-rule="evenodd" clip-rule="evenodd" d="M274.966,0c1.333,0,2.666,0,4,0c-26.477,16.45-58.209,33.788-83.99,48.994
		c-6.542,3.858-15.619,5.511-18.998,12.998c11.023,4.997,30.528,18.223,17.998,33.996c-5.85-5.495-0.099-12.266-4.999-18.998
		c-4.795-6.587-16.118-4.852-19.998-12.998c-0.701-4.367,1.701-5.632,1-9.999c-6.383,0.771-9.099-4.788-9.999-3.999
		c-8.25,5.091,1.423,12.106,4,15.998c3.703,5.592,7.457,10.943,11.999,15.998c12.626,14.053,29.554,25.665,25.997,46.993
		c-6.095,1.521-13.375,9.102-19.998,7.999c-7.297-1.214-7.779-7.847-13.998-12.998c-24.171-0.682-45.687-12.167-49.994-35.995
		c0.741,16.557,6.222,27.892,15.998,35.995c19.529,16.187,59.394,12.422,71.991,33.996c1.566,2.683,4.35,8.961,6,14.998
		c1.087,3.981,4.533,12.383,0,14.998c-5.397-3.467-5.441-11.678-7.999-17.998c-7.384-18.245-16.346-20.941-34.996-23.997
		c-11.042-1.809-23.175-6.254-31.996-11.998c-16.094-10.48-35.26-39.402-21.997-68.991c2.884-6.435,12.909-11.247,11.999-14.998
		c-25.703,6.626-44.357,20.301-62.992,33.995c7.413-13.251,22.375-18.952,32.996-28.996c20.694-8.65,46.534-17.438,70.991-18.998
		c1.488,6.22-7.075,14.602,6.999,9.999c5.62-1.838,9.331-3.755,13.999-5.999c7.331-3.524,11.809-5.391,18.998-8.999
		c7.587-3.809,13.08-6.955,21.997-7.999C242.4,12.762,261.25,8.948,274.966,0z M241.97,19.997c3.92-1.769,12.08-4.555,10.999-7.999
		C251.167,16.491,243.624,13.544,241.97,19.997z M225.972,28.996c6.393-1.606,10.68-5.318,13.999-9.998
		C233.775,20.802,229.189,24.215,225.972,28.996z M209.974,37.995c5.245-3.754,12.619-5.379,14.998-11.998
		C216.879,26.248,210.249,33.256,209.974,37.995z M179.978,53.993c-0.61-0.057-1.184-0.149-1-1c0.852-2.814,3.23-4.103,3-7.999
		c-3.775-0.441-4.694,1.972-6.999,3c-0.743,4.076,3.223,3.443,2,7.999c10.979-7.352,26.46-10.202,31.996-22.997
		c-9.447,0.884-11.724,8.939-16.998,13.998c-1.403-4.137,4.85-5.726,2-7.999C186.065,40.75,184.101,48.451,179.978,53.993z
		 M130.983,49.994c0.329,2.337,1.202,4.131,2,5.999c-20.979,24.915-4.193,56.833,24.997,60.992
		c10.862,1.548,20.724,0.552,30.996,4.999c0.004-1.785-2.693-5.816,0-6.999c8.767-1.211,2.293,6.975,6.999,8.999
		c2.115-12.538-6.724-18.083-13.999-25.997c-12.417-13.509-24.086-26.126-31.996-41.994c-3.75-0.084-3.67,3.662-7,3.999
		c-0.096-2.569-3.903-1.43-4-3.999c4.577-6.089,15.042-6.29,18.998-12.999C145.552,41.898,140.718,48.396,130.983,49.994z
		 M180.978,130.983c3.36,0.027,5.289-1.377,6.999-2.999c-4.173,0.135-7.461-5.82-10.999-3
		C178.805,126.49,179.33,129.298,180.978,130.983z"/>
	<path fill-rule="evenodd" clip-rule="evenodd" d="M289.964,340.957c-13.739,20.712-23.635-27.677,2-21.997
		c1.619,4.592-0.081,11.894-3,14.998c-2.971-3.361,0.558-8.731,1-11.998C274.944,315.399,274.488,351.104,289.964,340.957z"/>
	<path fill-rule="evenodd" clip-rule="evenodd" d="M595.926,334.958c1.566,1.779-8.881,12.078-10.998,4
		c-4.299,0.034-3.354,5.312-9,3.999c0.01-3.114,2.365-6.516,0-8.999c-4.373,1.293-6.285,5.046-8.998,7.999
		c-2.572-0.762-4.238-2.428-5-4.999c-3.518,0.945-7.645,7.504-8.998,0c-3.158,1.507-3.928,5.405-9,4.999c0-1,0-2,0-2.999
		c-1.906,0.426-1.809,2.856-4.998,1.999c-0.521-1.479-1.48-2.52-2-3.999c-5.014,0.319-4.219,6.446-10,5.999
		c0.799-1.868,1.672-3.662,2-5.999c-2.316-2.251-3.275,5.339-7.998,3.999c-3.135,0.468-2.818-2.514-4-3.999
		c-2.322,0.677-2.676,3.322-5,3.999c4.211,5.513,0.158,13.001-6.998,12.999c-2.662-3.641,0.354-8.516,3-9.999
		c0.482-3.149-3.07-2.264-2-5.999c-3.072,1.102-7.215,5.59-8-1c-3.158,1.507-3.926,5.405-8.998,4.999
		c0.059-4.624-5.404,0.309-8-4.999c-3.336,0.996-3.461,5.203-6.998,5.999c-0.58-3.246,0.682-4.651,1-6.999
		c-2.713-1.667-4.627,6.006-9,5.999c-0.826-2.826,1.41-2.59,1-4.999c-1.66-2.556-2.684,3.902-5.998,2.999
		c3.039-3.292,4.328-8.335,9.998-8.998c0,1.333,0,2.666,0,3.999c3.32-1.013,3.131-5.534,8-4.999c-1.494,2.332,0.336,4.308-1,4.999
		c1.066,2.272,3.031-2.872,5.998-2c1.004,1.329,0.945,3.721,3,4c5.914-1.753,7.018-8.315,13.998-8.999
		c-1.176,4.489-6.488,4.844-7.998,8.999c1.955,1.89,3.877-4.737,7.998-4c0.09,2.729-1.666,2.013,0,4
		c6.85-1.149,6.182-9.816,12.998-10.999c-0.586,4.08-2.541,6.79-5.998,7.999c-0.48,3.146,1.424,3.909,2,5.999
		c4.775-0.222,4.287-5.71,7.998-6.999c3.701-0.7,2.494,3.506,4,5c5.367-0.965,5.631-7.034,10.998-7.999
		c0.438,3.438-0.395,5.604-1,7.999c1.947-2.053,3.119-4.88,7-5c0.428,1.904,2.154,2.513,2,5c6.09-2.242,7.701-8.962,14.998-9.999
		c-1.178,4.489-6.488,4.844-8,8.999c1.957,1.89,3.879-4.737,8-4c0.09,2.729-1.666,2.013,0,4c5.236,0.903,3.762-4.903,8.998-4
		c-0.41,2.409,1.826,2.174,1,5c5.484,0.151,5.625-5.041,7.998-7.999c4.406-0.739,4.098,3.236,7,3.999c0.154,2.487-1.57,3.096-2,5
		c5.221,1.532,4.932-11.051,12.998-9.999c0.943,5.276-3.047,5.617-4.998,7.999C588.834,341.55,594.125,336.635,595.926,334.958z
		 M504.938,351.956c4.672,0.973,8.467-6.053,4-7.999C508.736,347.757,504.732,347.751,504.938,351.956z"/>
	<path fill-rule="evenodd" clip-rule="evenodd" d="M395.951,341.957c-3.766-1.909-4.234-1.909-8,0c0.309-2.357,3.473-1.86,3-4.999
		c-0.877-1.455-4.715,2.55-5.998,3.999c-2.504,0.17-3.131-1.536-4-2.999c-2.955,1.044-2.938,5.062-8,3.999c0-1.333,0-2.666,0-3.999
		c-4.584-0.252-4.141,4.524-8.998,3.999c-3.248-0.812-2.881-4.523-7-2c4.469-3.197,3.879-11.453,12-10.998
		c1.047,5.714-4.602,4.731-5,8.999c6.299,2.942,8.176-7.138,13.998-7.999c-1.441,2.224-2.512,4.821-2,8.999
		c3.404,0.071,3.725-2.941,5-5c3.209-0.876,2.072,2.594,4,3c3.633-0.032,4.393-2.94,3.998-6.999c4.486,4.606,4.512-2.188,10-2
		c2.586,3.827-3.477,6.108-4,9.999c2.506,2.763,6.203-1.739,7.998-3C404.414,337.141,398.256,340.224,395.951,341.957z"/>
	<path fill-rule="evenodd" clip-rule="evenodd" d="M114.986,152.98c0,0.667,0,1.334,0,2c27.208,17.595,87.383,12.888,81.99,54.993
		c-7.123,2.245-4.56-5.801-5-6.999c-11.441-31.142-49.946-25.8-76.99-39.995c-11.113-7.219-17.54-19.123-21.998-32.996
		c-0.74-8.056-2.169-15.971-3-24.996c-0.623-6.776-4.063-19.144,2-21.998c6.131,1.145,2.568,11.006,3,17.998
		c0.469,7.603,2.253,14.714,3,19.997C102.778,132.525,106.411,145.224,114.986,152.98z"/>
	<path fill-rule="evenodd" clip-rule="evenodd" d="M333.959,315.961c0.285,9.617-5.209,13.456-8,19.997
		c0.139,1.862,0.658,3.342,2,3.999c1.234-1.798,0.262-7.286,6-6.999c-0.932,5.068-2.363,9.636-8,9.999
		c-3.227,0.895-1.404-3.261-2.998-3.999c-1.918,1.134-6.158,3.846-6-1c-2.711,0.622-2.488,4.177-6,3.999
		c-4.469-0.067-1.273-2.285-2.998-3.999c-4.299,0.035-3.355,5.312-9,3.999c-1.707-0.959-2.191-3.141-3-4.999
		c-1.44,0.56-2.44,1.56-3,2.999c3.511-4.496,3.82-20.837,13-22.997c-0.1,8.566-3.682,13.65-8,17.998c1.003,1.329,0.945,3.721,3,4
		c5.768-0.898,7.428-5.903,10.998-8.999c2.229,1.021-1.307,4.597,0,7.999c1.391,2.283,3.459-3.128,5-4c3.555-1.555,0.604,3.396,3,3
		C328.781,334.113,323.244,316.912,333.959,315.961z M327.959,330.959c0.299-3.105,5.232-10.875,3-9.999
		C330.381,324.092,325.303,327.91,327.959,330.959z M299.962,330.959c0.877-2.506,4.633-7.299,3-8.999
		C302.447,324.826,297.728,328.657,299.962,330.959z"/>
</g>
</svg>
